<svg width="18" height="24" viewBox="0 0 18 24" fill="none" xmlns="http://www.w3.org/2000/svg">
<path d="M16.6736 12.5909C16.116 11.8699 15.2747 11.3747 14.1495 11.1056C15.5823 10.3747 16.212 9.13428 16.0391 7.38408C15.9813 6.74942 15.8059 6.19938 15.5125 5.73315C15.2189 5.26682 14.8227 4.89192 14.3223 4.60831C13.8224 4.32435 13.2787 4.10818 12.6924 3.95916C12.106 3.81013 11.4328 3.70192 10.6731 3.63468V0H8.45214V3.53369C8.06754 3.53369 7.48103 3.54329 6.69264 3.56254V0H4.47136V3.63468C4.15395 3.64433 3.68767 3.64923 3.07231 3.64923L0.0146484 3.63468V6.00014H1.61552C2.34631 6.00014 2.7742 6.32714 2.89918 6.9809V11.1205C2.99547 11.1205 3.07231 11.1254 3.13005 11.135H2.89918V16.9329C2.82234 17.4232 2.54354 17.6686 2.0627 17.6686H0.461936L0.0147494 20.3081H2.89944C3.08216 20.3081 3.34642 20.3105 3.69272 20.3149C4.03882 20.3197 4.29833 20.3221 4.47146 20.3221V24H6.69309V20.3654C7.09684 20.3752 7.68335 20.3799 8.45259 20.3799V24H10.6736V20.3221C11.4623 20.2837 12.1617 20.212 12.772 20.1059C13.3827 19.9997 13.9669 19.8341 14.5245 19.608C15.082 19.3822 15.5483 19.1008 15.9233 18.7642C16.2984 18.428 16.6082 17.9999 16.8539 17.4805C17.0987 16.9612 17.2551 16.3602 17.3222 15.6774C17.4477 14.3412 17.2313 13.3122 16.6736 12.5909ZM6.73583 6.15836C6.80317 6.15836 6.99307 6.15594 7.30558 6.15109C7.61823 6.14614 7.87774 6.14139 8.08446 6.13654C8.29124 6.13179 8.5701 6.14381 8.9212 6.17266C9.27215 6.2015 9.56778 6.24005 9.80809 6.28804C10.0484 6.33603 10.3131 6.4154 10.6013 6.52598C10.89 6.63647 11.1206 6.77115 11.2935 6.92977C11.4667 7.0884 11.6133 7.29042 11.7333 7.53564C11.8536 7.7808 11.9137 8.06204 11.9137 8.37929C11.9137 8.64855 11.8705 8.89382 11.7841 9.11509C11.6978 9.3362 11.5677 9.52135 11.3948 9.67038C11.2219 9.81946 11.0437 9.94939 10.8609 10.0599C10.6784 10.1704 10.445 10.2594 10.1615 10.3266C9.87796 10.394 9.63037 10.4468 9.41895 10.4852C9.20738 10.5237 8.94302 10.5503 8.62567 10.5646C8.30826 10.579 8.06779 10.5888 7.90442 10.5935C7.74089 10.5982 7.5174 10.5982 7.23364 10.5935C6.94983 10.5888 6.78418 10.5862 6.73598 10.5862V6.15831L6.73583 6.15836ZM12.801 15.9804C12.7094 16.2017 12.5918 16.3941 12.4477 16.5577C12.3033 16.7209 12.1133 16.8653 11.8779 16.9901C11.6425 17.1153 11.4139 17.2161 11.1929 17.293C10.9716 17.3703 10.7047 17.4372 10.3925 17.4951C10.0796 17.5528 9.80572 17.5934 9.5699 17.6176C9.33443 17.6417 9.0533 17.6609 8.72625 17.6754C8.39945 17.6896 8.14448 17.6969 7.96186 17.6969C7.77913 17.6969 7.54832 17.6943 7.26946 17.6896C6.99044 17.6851 6.81272 17.6827 6.73573 17.6827V12.8074C6.81257 12.8074 7.04096 12.8027 7.42086 12.7929C7.80081 12.7832 8.11073 12.7787 8.35115 12.7787C8.59151 12.7787 8.92337 12.7929 9.34661 12.822C9.76945 12.8506 10.1252 12.8937 10.414 12.9514C10.7023 13.0092 11.017 13.098 11.3586 13.2183C11.6998 13.3385 11.9764 13.4851 12.1881 13.6581C12.3996 13.8315 12.5774 14.0523 12.7216 14.3216C12.8661 14.5908 12.9382 14.8986 12.9382 15.2448C12.9381 15.5143 12.8925 15.7591 12.801 15.9804Z" fill="black"/>
</svg>
