<?xml version="1.0" encoding="UTF-8"?>
<svg id="katman_4" data-name="katman 4" xmlns="http://www.w3.org/2000/svg" viewBox="0 0 24 24">
  <defs>
    <style>
      .cls-1 {
        stroke-width: 0px;
      }
    </style>
  </defs>
  <path class="cls-1" d="M15,3h0c0-.55-.45-1-1-1h-4c-.55,0-1,.45-1,1h0c0,.55-.45,1-1,1H4c-.55,0-1,.45-1,1h0c0,.55.45,1,1,1h16c.55,0,1-.45,1-1h0c0-.55-.45-1-1-1h-4c-.55,0-1-.45-1-1Z"/>
  <path class="cls-1" d="M4.15,8.12l1.74,13.02c.07.49.49.86.98.86h10.26c.5,0,.92-.37.98-.86l1.74-13.02c.08-.59-.38-1.12-.98-1.12H5.13c-.6,0-1.06.53-.98,1.12ZM6.88,19.14l-1.21-9.02c-.08-.59.38-1.12.98-1.12h0c.5,0,.92.37.98.86l1.21,9.02c.08.59-.38,1.12-.98,1.12h0c-.5,0-.92-.37-.98-.86ZM12.01,20h-.02c-.55,0-.99-.44-.99-.99v-9.02c0-.55.44-.99.99-.99h.02c.55,0,.99.44.99.99v9.02c0,.55-.44.99-.99.99ZM16.13,20h0c-.6,0-1.06-.53-.98-1.12l1.21-9.02c.07-.49.49-.86.98-.86h0c.6,0,1.06.53.98,1.12l-1.21,9.02c-.07.49-.49.86-.98.86Z"/>
</svg>