<?xml version="1.0" encoding="UTF-8"?>
<svg id="katman_4" data-name="katman 4" xmlns="http://www.w3.org/2000/svg" viewBox="0 0 24 24">
  <path d="m20,10v10h-10v-10h10m1-2h-12c-.55,0-1,.45-1,1v12c0,.55.45,1,1,1h12c.55,0,1-.45,1-1v-12c0-.55-.45-1-1-1h0Z"/>
  <path d="m17,12h-4c-.55,0-1,.45-1,1s.45,1,1,1h4c.55,0,1-.45,1-1s-.45-1-1-1h0Z"/>
  <path d="m17,16.02h-4c-.55,0-1,.45-1,1s.45,1,1,1h4c.55,0,1-.45,1-1s-.45-1-1-1h0Z"/>
  <path d="m17,3.99H5c-.55,0-1,.45-1,1v12.01c0,.55.44,1,1,1h3v-2h-1c-.55,0-1-.45-1-1V6.99c0-.55.45-1,1-1h8c.55,0,1,.45,1,1v2.51h2v-4.51c0-.55-.45-1-1-1Z"/>
</svg>