<svg width="24" height="24" viewBox="0 0 24 24" fill="none" xmlns="http://www.w3.org/2000/svg">
<path d="M13.2438 21.1336V22.792H10.8856V21.0558C8.62845 20.801 6.5124 19.8292 4.84814 18.2832L6.71377 15.977C7.87691 17.084 9.31885 17.8543 10.8856 18.2058V13.1527C7.69814 12.3233 5.54771 11.1839 5.54771 8.12559C5.54771 5.32716 7.69833 3.17559 10.8856 2.78766V1.20703H13.2438V2.81372C15.2665 3.02288 17.1712 3.86635 18.6855 5.22347L16.923 7.60734C15.8773 6.66373 14.6127 5.99583 13.2438 5.66409V10.5355C16.7938 11.3388 19.1518 12.5566 19.1518 15.7178C19.1518 18.698 17.001 20.8745 13.2438 21.1336ZM10.8856 9.91359V5.61216C9.61608 5.92303 8.81246 6.82997 8.81246 7.84059C8.81246 8.87709 9.48633 9.42122 10.8856 9.91359ZM15.9127 16.0287C15.9127 14.8368 15.0834 14.2927 13.2438 13.7485V18.361C15.0058 18.1537 15.9127 17.1691 15.9127 16.0287Z" fill="black"/>
</svg>
