<?xml version="1.0" encoding="UTF-8"?>
<svg id="katman_4" data-name="katman 4" xmlns="http://www.w3.org/2000/svg" viewBox="0 0 24 24">
  <defs>
    <style>
      .cls-1 {
        stroke-width: 0px;
      }
    </style>
  </defs>
  <path class="cls-1" d="M19,19H5V5h2v2h2v-2h2v2h2v-2h2v2h2v-2h1.99l2.01-2h-4v-1h-2v1h-2v-1h-2v1h-2v-1h-2v1h-3c-.55,0-1,.45-1,1v15.99c0,.55.45,1,1,1h15.99c.55,0,1-.45,1-1v-8.99l-2,2.03v5.96Z"/>
  <polygon class="cls-1" points="20.99 4.89 19.57 6.3 18.87 7.01 18.69 7.19 18.63 7.25 12.38 13.5 12.03 15.97 14.5 15.62 20.88 9.24 20.99 9.13 21.7 8.43 21.89 8.23 22 8.12 22 5.9 20.99 4.89"/>
  <rect class="cls-1" x="7.02" y="14" width="2.99" height="2"/>
  <rect class="cls-1" x="7.02" y="9" width="5.98" height="2"/>
</svg>