<svg id="katman_4" data-name="katman 4" xmlns="http://www.w3.org/2000/svg" viewBox="0 0 24 24"><path d="M9,12a3,3,0,0,0,3,3,2.91,2.91,0,0,0,1.28-.31l-4-4A3,3,0,0,0,9,12Z"/><path d="M15,11.73s0-.07,0-.1a.78.78,0,0,0,0-.16l0-.13a.3.3,0,0,0,0-.1A3,3,0,0,0,12,9a3,3,0,0,0-1.29.3l4,4,0,0,.09-.22,0-.08a1,1,0,0,0,.06-.22l0-.1a1.7,1.7,0,0,0,0-.22s0-.06,0-.09,0-.22,0-.33h0C15,11.91,15,11.82,15,11.73Z"/><path d="M12,17c-4.33,0-8-2.29-8-5,0-1.49,1.1-2.84,2.81-3.77L5.36,6.78h0L3.69,5.11A1,1,0,1,0,2.28,6.52L3.79,8A5.59,5.59,0,0,0,2,12c0,3.87,4.47,7,10,7a13.38,13.38,0,0,0,4.75-.84l-1.59-1.59A11.49,11.49,0,0,1,12,17Z"/><path d="M21.74,17.48,20.21,16A5.63,5.63,0,0,0,22,12c0-3.87-4.47-7-10-7a13.38,13.38,0,0,0-4.75.84L8.84,7.43A11.49,11.49,0,0,1,12,7c4.33,0,8,2.29,8,5,0,1.49-1.1,2.84-2.81,3.77l1.46,1.45h0l1.68,1.68a1,1,0,0,0,1.42-1.42Z"/></svg>