<svg id="katman_4" data-name="katman 4" xmlns="http://www.w3.org/2000/svg" viewBox="0 0 24 24"><path d="M17.76,10.93A6.33,6.33,0,1,0,5.67,8.32a6.19,6.19,0,0,0,.56,2.58h0l4.9,10.54a1,1,0,0,0,1.76,0l4.89-10.51ZM12,11a3,3,0,1,1,3-3A3,3,0,0,1,12,11Z"/><path d="M18.1,15.08,17.23,17a6.31,6.31,0,0,1,2.65,1.25,8.3,8.3,0,0,1-3.94,1.55l-1,2.24C19,21.5,22,20,22,18.21,22,16.94,20.47,15.8,18.1,15.08Z"/><path d="M4.12,18.21A6.48,6.48,0,0,1,6.78,17l-.87-1.87C3.54,15.8,2,16.93,2,18.21,2,20,5,21.5,9.11,22l-1-2.24A8.36,8.36,0,0,1,4.12,18.21Z"/></svg>