<?xml version="1.0" encoding="UTF-8"?>
<svg id="katman_4" data-name="katman 4" xmlns="http://www.w3.org/2000/svg" viewBox="0 0 24 24">
  <path d="m20,4v11.5h-7.59c-.8,0-1.56.31-2.12.88l-2.28,2.29v-.17c0-1.65-1.35-3-3-3h-1.01V4h16m1-2H3c-.55,0-1,.45-1,1v13.5c0,.55.45,1,1,1h2.01c.55,0,1,.45,1,1v2.58c0,.6.49,1,1.01,1,.25,0,.5-.09.7-.3l3.99-4c.19-.19.44-.29.71-.29h8.59c.55,0,1-.45,1-1V3c0-.55-.45-1-1-1h0Z"/>
  <path d="m16,6H8c-.55,0-1,.45-1,1v.76h0v1.48h0v.76c0,.55.45,1,1,1h6.98v1h-7.98v1c0,.55.45,1,1,1h8c.55,0,1-.45,1-1v-1h0v-1h0v-1c0-.55-.45-1-1-1h-7v-1h8v-1c0-.55-.45-1-1-1h0Z"/>
</svg>