<svg id="katman_4" data-name="katman 4" xmlns="http://www.w3.org/2000/svg" viewBox="0 0 24 24"><circle cx="18" cy="16" r="2"/><circle cx="6" cy="16" r="2"/><path d="M22,14.39v-.06a1.49,1.49,0,0,0,0-.21v-.38s0-.07,0-.11v-.06c-.1-.78-.65-2.4-3.48-2.77a2.27,2.27,0,0,1-.53-.13,11.14,11.14,0,0,1-5.23-2.93l-.33-.33a1.41,1.41,0,0,0-1-.41H8.57a1.39,1.39,0,0,0-1,.4L5.64,9.33a9.78,9.78,0,0,1-2.84,1.8A1.4,1.4,0,0,0,2,12.39v2.22a1.4,1.4,0,0,0,1,1.33A3,3,0,0,1,9,16h6a3,3,0,0,1,6-.06A2.12,2.12,0,0,0,22,14.39Z"/></svg>