<?xml version="1.0" encoding="UTF-8"?>
<svg id="katman_1" data-name="katman 1" xmlns="http://www.w3.org/2000/svg" viewBox="0 0 56.69 56.69">
  <defs>
    <style>
      .cls-1 {
        fill: #ffac75;
        stroke-width: 0px;
      }
    </style>
  </defs>
  <path class="cls-1" d="M52.83,47.27L31.84,5.88c-1.45-2.86-5.53-2.86-6.98,0L3.86,47.27c-1.32,2.6.57,5.68,3.49,5.68h41.99c2.92,0,4.81-3.08,3.49-5.68ZM28.35,47.55c-1.55,0-2.81-1.26-2.81-2.81s1.26-2.81,2.81-2.81,2.81,1.26,2.81,2.81-1.26,2.81-2.81,2.81ZM30.78,37.41c-.06,1.02-1.09,1.83-2.34,1.83h-.19c-1.25,0-2.28-.8-2.34-1.83l-.95-17.15c-.06-1.09,1-2,2.34-2h2.1c1.34,0,2.4.91,2.34,2l-.95,17.15Z"/>
</svg>