<svg xmlns="http://www.w3.org/2000/svg" version="1.1" xmlns:xlink="http://www.w3.org/1999/xlink" xmlns:svgjs="http://svgjs.com/svgjs" width="512" height="512" x="0" y="0" viewBox="0 0 24 24" style="enable-background:new 0 0 512 512" xml:space="preserve" class=""><g><path d="M21 9a9 9 0 0 1-4 7.47V22a1 1 0 0 1-1 1H8a1 1 0 0 1-1-1v-5.53a9 9 0 0 1 .5-15.26 1 1 0 0 1 1 0 1 1 0 0 1 .5.87V7.5l3 2.25 3-2.25V2.08a1 1 0 0 1 .5-.87 1 1 0 0 1 1 0A9 9 0 0 1 21 9z" fill="#000000" data-original="#000000" class=""></path></g></svg>